<?xml version="1.0" encoding="UTF-8"?>
<svg id="Layer_2" data-name="Layer 2" xmlns="http://www.w3.org/2000/svg" viewBox="0 0 688.51 474.9">
  <defs>
    <style>
      .cls-1 {
        fill: #fff;
        stroke-width: 0px;
      }
    </style>
  </defs>
  <g id="Layer_1-2" data-name="Layer 1">
    <g>
      <path class="cls-1" d="m392.87,329.14c43.57-23.37,71.63-56.26,87.06-99.82,4.73-13.36,8.47-27.05,8.85-41.36.11-4.15,1.19-7.36,4.27-10.31,25.13-24.07,52.27-45.58,81.42-64.57,9.34-6.09,7.1,3.36,7.67,6.4,3.73,19.87,4.36,39.25,2.01,58.15-1.04,8.35-5.01,36.75-22.85,69.04-8.75,15.85-36.88,66.75-85.73,79.64-11.21,2.96-24.57,4.19-82.7,2.83Z"/>
      <path class="cls-1" d="m560.95,287.78c4.25-5.86,8.44-11.76,12.75-17.57,37.67-50.72,47.97-106.91,32.61-167.78-2.4-9.52-.5-14.05,8.25-17.76,11.45-4.86,22.97-9.32,35.23-11.4,14.42-2.46,22.83,1.75,29.66,14.73,8.73,16.59,11.13,34.37,7.31,52.57-15.06,71.7-58.63,119.44-125.81,147.23Z"/>
      <g>
        <path class="cls-1" d="m677.67,47.64c-18.78,9.61-37.14,13.27-54.19,20.41-46.29,19.38-89.71,43.56-129.31,74.66-29.11,22.86-55.39,48.58-79.77,76.22-24.65,27.94-41.74,60.86-59.35,93.42-24.66,45.61-49.4,91.21-79.27,133.74-6.13,8.73-12.98,16.95-19.35,25.51-2.7,3.64-5.3,4.48-9.11,1.45-2.58-2.06-5.69-3.47-8.54-5.19-4.6-2.78-5.54-5.37-2.61-10.98,27.3-52.27,46.08-107.38,54.83-165.87,2.4-16.03,3.62-32.12,5.44-48.18,1.05-9.25,7.86-15.18,12.9-21.67,24.09-30.99,51.77-58.51,82.67-82.83,22.6-17.79,46.03-34.42,71.03-48.49,46.35-26.07,94.89-46.77,147.2-58.21,25.02-5.47,44.51,6.74,67.43,16.01Z"/>
        <path class="cls-1" d="m258.56,259.59c-2.52,64.6-29.21,117.64-76.32,160.62-21.34,19.47-44.97,35.68-72.65,45.18,16.45-13.5,32.25-27.33,42.3-48.48-52.56,12.94-102.67,6.32-151.9-9.68,4.03-1.92,8.05-.12,12.25.68,4.37.83,8.94.56,13.38,1.1,31.72,3.9,62.55-.59,93.02-9.31,25.26-7.23,48.22-19.16,69.02-34.83,27.29-20.56,48.34-46.29,61.27-78.4,3.59-8.91,5.41-18.39,9.61-26.87Z"/>
        <path class="cls-1" d="m548.28,9.43C512.14,2.44,475.61.22,439.05,0c-22.7-.13-56.85,1.76-96.43,8.75,0,0-192.29,33.99-293.68,164.12-2.45,3.14-8.91,11.27-11.99,23.49-7.5,29.74,5.3,53.59,22.22,76.22,2.43,3.25,5.23,1.81,8.17.55q13.49-5.76,20.65,6.37c.46.79.69,1.71,1.17,2.49,14.84,24.17,30.47,47.78,50.84,70.47-8.71-33.15-15.27-64.62-17.64-96.87-.39-5.33-.4-7.95,5.47-10.13,50.67-18.85,102.83-30.66,156.8-34.07,4.8-.3,7.74-1.94,10.55-5.61,19.17-25.07,41.24-47.45,65.11-68.01,45.1-38.87,94.93-70.32,149.51-94.23,24.03-10.53,48.98-18.37,74.2-26.63-11.89-2.67-23.77-5.19-35.72-7.5Zm-270.27,71.98c-10.72,8.56-21.39,17.27-31.34,26.69-11.29,10.69-23.04,21.01-32.72,33.29-3.94,5-8.62,7.64-15.03,8.74-27.62,4.77-54.61,12.06-81.28,21.41,54.96-53.21,119.08-91.15,192.22-114.05-10.64,7.95-21.48,15.63-31.85,23.91Z"/>
      </g>
    </g>
  </g>
</svg>